<?xml version="1.0" encoding="UTF-8"?>
<svg id="_图层_1" data-name="图层 1" xmlns="http://www.w3.org/2000/svg" viewBox="0 0 1130.63 554.39">
  <circle cx="4.74" cy="25.55" r="4.74"/>
  <circle cx="99.07" cy="4.74" r="4.74"/>
  <circle cx="168.93" cy="40.63" r="4.74"/>
  <circle cx="194.74" cy="154.65" r="4.74"/>
  <circle cx="168.95" cy="264.29" r="4.74"/>
  <circle cx="99.36" cy="300.98" r="4.74"/>
  <circle cx="110.19" cy="393.47" r="4.74"/>
  <circle cx="168.38" cy="423.55" r="4.74"/>
  <circle cx="190.83" cy="521.95" r="4.74"/>
  <circle cx="250.01" cy="549.64" r="4.74"/>
  <circle cx="4.74" cy="153.75" r="4.74"/>
  <circle cx="4.74" cy="281.66" r="4.74"/>
  <circle cx="4.74" cy="407.19" r="4.74"/>
  <circle cx="4.74" cy="535.81" r="4.74"/>
  <circle cx="390.39" cy="25.55" r="4.74"/>
  <circle cx="390.39" cy="153.75" r="4.74"/>
  <circle cx="390.39" cy="281.66" r="4.74"/>
  <circle cx="390.39" cy="407.19" r="4.74"/>
  <circle cx="390.39" cy="535.81" r="4.74"/>
  <circle cx="596.96" cy="25.55" r="4.74"/>
  <circle cx="596.96" cy="153.75" r="4.74"/>
  <circle cx="596.96" cy="281.66" r="4.74"/>
  <circle cx="691.21" cy="25.55" r="4.74"/>
  <circle cx="691.21" cy="281.66" r="4.74"/>
  <circle cx="772.18" cy="25.55" r="4.74"/>
  <circle cx="772.18" cy="281.66" r="4.74"/>
  <circle cx="596.96" cy="407.19" r="4.74"/>
  <circle cx="596.96" cy="535.81" r="4.74"/>
  <circle cx="950.67" cy="25.55" r="4.74"/>
  <circle cx="950.67" cy="153.75" r="4.74"/>
  <circle cx="950.67" cy="281.66" r="4.74"/>
  <circle cx="1044.92" cy="25.55" r="4.74"/>
  <circle cx="1044.92" cy="281.66" r="4.74"/>
  <circle cx="1125.89" cy="25.55" r="4.74"/>
  <circle cx="1125.89" cy="281.66" r="4.74"/>
  <circle cx="950.67" cy="407.19" r="4.74"/>
  <circle cx="950.67" cy="535.81" r="4.74"/>
</svg>